<svg viewBox="0 0 1501.4 317.8" version="1.1" id="Layer_1" xmlns="http://www.w3.org/2000/svg"><defs><style> .st0 { fill: #e08811; } .st1 { fill: #11a19a; } .st2 { fill: #1d1d1b; } </style></defs><g><path d="M390.9,292.7h-115.7V36h25.4v231.8h90.3v24.9Z" class="st2"></path><path d="M438.1,76h-24.9v-40h24.9v40ZM413.3,292.7V98.8h24.9v193.9h-24.9Z" class="st2"></path><path d="M494.9,36v95.4c10.5-12.6,21.9-21.9,34.4-27.9,12.5-6,26.4-9,41.8-9,27.3,0,50.3,9.8,69.2,29.4,18.9,19.6,28.3,43.5,28.3,71.6s-9.6,53.3-28.9,72.9c-19.3,19.6-43.5,29.4-72.6,29.4s-27.5-2.9-39.4-8.5c-11.9-5.7-22.8-14.3-32.7-25.8v29.3h-24.5V36h24.5ZM494.9,197.7c0,20.7,7.3,38.7,21.9,54,14.6,15.3,31.5,23,50.5,23s38.5-7.7,53.2-23.1c14.6-15.4,21.9-34.4,21.9-57.1s-7.3-39.7-21.9-54.6c-14.6-14.9-32-22.3-52.4-22.3s-37.6,7.8-51.9,23.3c-14.3,15.5-21.4,34.4-21.4,56.8Z" class="st2"></path><path d="M716.2,292.7h-25.2V98.8h23.4v22.4c6.1-8.6,12.8-14.9,20-18.9,7.2-4,15.7-6.1,25.3-6.3l.2,27c-15.6,1.4-26.8,6.1-33.6,14-6.8,7.9-10.1,20.8-10.1,38.7v117.1Z" class="st2"></path><path d="M763.8,195.9c0-28.4,9.8-52.8,29.3-73,19.5-20.2,42.6-30.3,69.3-30.3s52,9.9,71.8,29.8c19.8,19.9,29.7,43.5,29.7,71s-9.7,53.6-29.1,74c-19.4,20.5-42.9,30.7-70.5,30.7s-51.9-10-71.3-30.1c-19.5-20-29.2-44.1-29.2-72.2ZM789.9,195.6c0,22.3,7.1,41,21.3,56.2,14.2,15.1,31.9,22.7,53.1,22.7s38.3-7.6,52.4-22.7c14.1-15.1,21.2-33.9,21.2-56.5s-7.1-41.8-21.4-56.5c-14.3-14.7-32.4-22.1-54.4-22.1s-36.7,7.6-50.9,22.7c-14.2,15.2-21.2,33.9-21.2,56.2Z" class="st2"></path><path d="M1011.1,76h-24.9v-40h24.9v40ZM986.3,292.7V98.8h24.9v193.9h-24.9Z" class="st2"></path><path d="M1207.2,129.4V36h25v256.7h-25v-29.3c-8.7,10.8-19.5,19.2-32.4,25.3-12.9,6.1-26.6,9.1-41.1,9.1-28,0-51.5-9.9-70.7-29.6-19.2-19.7-28.7-44-28.7-72.6s9.5-52.4,28.4-71.8c18.9-19.5,42.6-29.2,71-29.2s29.2,3,41.7,8.9c12.5,5.9,23.1,14.6,31.8,26ZM1207.9,197.7c0-22.1-7.3-41-21.9-56.6-14.6-15.6-31.8-23.4-51.6-23.4s-38,7.4-52.5,22.3c-14.6,14.9-21.9,33.1-21.9,54.6s7.3,41.7,21.9,57.1c14.6,15.4,32.4,23.1,53.2,23.1s36.1-7.7,50.5-23c14.4-15.4,21.6-34.1,21.6-56.2l.7,2.1Z" class="st2"></path><path d="M1383.1,227.2l21.3,13.9c-10.5,15.2-23.1,26.8-37.7,34.7-14.6,8-31.2,11.9-49.7,11.9-30.9,0-55.7-10-74.2-30-18.6-20-27.8-43.7-27.8-71s9.4-52.1,28.1-72.2c18.7-20.1,42.1-30.2,70.2-30.2s33.2,3.8,47.2,11.3c14,7.5,25.7,18.6,35.1,33.3l-21.3,13.6c-7-11-15.6-19.3-25.8-24.7-10.2-5.5-21.7-8.2-34.5-8.2-20.2,0-37.4,7.6-51.7,22.9-14.3,15.3-21.4,34.1-21.4,56.5s7.2,40.7,21.6,55.7c14.4,15,32.1,22.5,53.2,22.5,12.8,0,24.6-2.9,35.5-8.6,10.9-5.7,20.7-14.5,29.5-26.3h.4Z" class="st2"></path><path d="M1501.4,227.2l21.3,13.9c-10.5,15.2-23.1,26.8-37.7,34.7-14.6,8-31.2,11.9-49.7,11.9-30.9,0-55.7-10-74.2-30-18.6-20-27.8-43.7-27.8-71s9.4-52.1,28.1-72.2c18.7-20.1,42.1-30.2,70.2-30.2s33.2,3.8,47.2,11.3c14,7.5,25.7,18.6,35.1,33.3l-21.3,13.6c-7-11-15.6-19.3-25.8-24.7-10.2-5.5-21.7-8.2-34.5-8.2-20.2,0-37.4,7.6-51.7,22.9-14.3,15.3-21.4,34.1-21.4,56.5s7.2,40.7,21.6,55.7c14.4,15,32.1,22.5,53.2,22.5,12.8,0,24.6-2.9,35.5-8.6,10.9-5.7,20.7-14.5,29.5-26.3h.4Z" class="st2"></path></g><g><polygon points="151.7 56.8 75.8 100.6 75.8 188.1 151.7 231.9 227.6 188.1 227.6 100.6 151.7 56.8" class="st0"></polygon><polygon points="151.7 85.9 227.6 129.7 227.6 217.2 151.7 261 75.8 217.2 75.8 129.7 151.7 85.9" class="st1"></polygon></g></svg>
